<svg width="829" height="161" viewBox="0 0 829 161" fill="none" xmlns="http://www.w3.org/2000/svg">
<path d="M40.448 120.96C32.8533 120.96 25.984 119.253 19.84 115.84C13.7813 112.427 8.96 107.435 5.376 100.864C1.792 94.208 0 86.272 0 77.056C0 64.0853 2.34667 52.6507 7.04 42.752C11.8187 32.8533 18.2613 25.216 26.368 19.84C34.56 14.464 43.6053 11.776 53.504 11.776C61.0987 11.776 67.9253 13.4827 73.984 16.896C80.128 20.3093 84.992 25.344 88.576 32C92.16 38.5707 93.952 46.464 93.952 55.68C93.952 68.6507 91.5627 80.0853 86.784 89.984C82.0907 99.8827 75.648 107.52 67.456 112.896C59.3493 118.272 50.3467 120.96 40.448 120.96ZM41.728 105.856C48.384 105.856 54.2293 103.808 59.264 99.712C64.384 95.616 68.3093 89.9413 71.04 82.688C73.7707 75.3493 75.136 67.072 75.136 57.856C75.136 47.7013 73.0027 40.0213 68.736 34.816C64.4693 29.5253 58.9653 26.88 52.224 26.88C45.6533 26.88 39.8507 28.928 34.816 33.024C29.7813 37.0347 25.856 42.7093 23.04 50.048C20.224 57.3013 18.816 65.5787 18.816 74.88C18.816 85.0347 20.9493 92.7573 25.216 98.048C29.4827 103.253 34.9867 105.856 41.728 105.856Z" fill="#717171"/>
<path d="M172.656 91.776C173.765 91.776 174.619 92.288 175.216 93.312C175.899 94.336 176.24 95.744 176.24 97.536C176.24 100.949 175.429 103.595 173.808 105.472C170.309 109.739 166.469 113.408 162.288 116.48C158.107 119.467 153.968 120.96 149.872 120.96C143.387 120.96 138.437 117.163 135.024 109.568C131.44 114.091 128.283 117.12 125.552 118.656C122.907 120.192 119.792 120.96 116.208 120.96C111.003 120.96 106.693 119.04 103.28 115.2C99.952 111.275 98.288 106.197 98.288 99.968C98.288 93.1413 99.7387 86.8267 102.64 81.024C105.541 75.136 109.509 70.3573 114.544 66.688C119.664 62.9333 125.381 60.7147 131.696 60.032C133.317 43.4773 136.389 29.3547 140.912 17.664C145.52 5.888 151.536 0 158.96 0C162.629 0 165.659 1.664 168.048 4.992C170.523 8.32 171.76 13.3547 171.76 20.096C171.76 29.6533 169.413 40.832 164.72 53.632C160.027 66.432 153.755 79.5733 145.904 93.056C146.245 98.0053 146.971 101.547 148.08 103.68C149.275 105.813 150.768 106.88 152.56 106.88C154.864 106.88 157.211 105.856 159.6 103.808C161.989 101.76 165.189 98.3467 169.2 93.568C170.224 92.3733 171.376 91.776 172.656 91.776ZM157.552 12.544C155.931 12.544 154.309 15.4453 152.688 21.248C151.067 26.9653 149.659 34.4747 148.464 43.776C147.355 53.0773 146.544 62.8053 146.032 72.96C155.589 52.1387 160.368 35.4133 160.368 22.784C160.368 19.5413 160.069 17.024 159.472 15.232C158.96 13.44 158.32 12.544 157.552 12.544ZM120.688 108.032C122.309 108.032 123.931 107.392 125.552 106.112C127.173 104.747 129.221 102.272 131.696 98.688C130.843 94.08 130.416 88.9173 130.416 83.2C130.416 81.152 130.501 77.824 130.672 73.216C125.979 74.6667 122.053 77.824 118.896 82.688C115.824 87.4667 114.288 92.8 114.288 98.688C114.288 104.917 116.421 108.032 120.688 108.032Z" fill="#717171"/>
<path d="M182.595 52.224C179.011 52.224 176.323 51.4133 174.531 49.792C172.739 48.0853 171.843 45.7387 171.843 42.752C171.843 39.7653 172.995 37.2907 175.299 35.328C177.688 33.28 180.632 32.256 184.131 32.256C187.288 32.256 189.848 33.024 191.811 34.56C193.774 36.096 194.755 38.272 194.755 41.088C194.755 44.5013 193.646 47.232 191.427 49.28C189.208 51.2427 186.264 52.224 182.595 52.224ZM181.571 120.96C176.024 120.96 171.971 118.997 169.411 115.072C166.936 111.147 165.699 105.941 165.699 99.456C165.699 95.616 166.168 90.7093 167.107 84.736C168.131 78.6773 169.411 73.0453 170.947 67.84C171.715 65.1093 172.739 63.232 174.019 62.208C175.299 61.184 177.347 60.672 180.163 60.672C184.515 60.672 186.691 62.1227 186.691 65.024C186.691 67.1573 185.88 72.1067 184.259 79.872C182.211 89.2587 181.187 95.616 181.187 98.944C181.187 101.504 181.528 103.467 182.211 104.832C182.894 106.197 184.046 106.88 185.667 106.88C187.203 106.88 189.123 105.813 191.427 103.68C193.731 101.547 196.803 98.176 200.643 93.568C201.667 92.3733 202.819 91.776 204.099 91.776C205.208 91.776 206.062 92.288 206.659 93.312C207.342 94.336 207.683 95.744 207.683 97.536C207.683 100.949 206.872 103.595 205.251 105.472C196.803 115.797 188.91 120.96 181.571 120.96Z" fill="#717171"/>
<path d="M206.415 120.96C203.172 120.96 200.868 119.253 199.503 115.84C198.223 112.427 197.583 106.965 197.583 99.456C197.583 88.3627 199.162 77.824 202.319 67.84C203.087 65.3653 204.324 63.5733 206.031 62.464C207.823 61.2693 210.298 60.672 213.455 60.672C215.162 60.672 216.356 60.8853 217.039 61.312C217.722 61.7387 218.063 62.5493 218.063 63.744C218.063 65.1093 217.423 68.1813 216.143 72.96C215.29 76.3733 214.607 79.36 214.095 81.92C213.583 84.48 213.156 87.6373 212.815 91.392C215.631 84.0533 218.788 78.08 222.287 73.472C225.786 68.864 229.199 65.5787 232.527 63.616C235.94 61.6533 239.055 60.672 241.871 60.672C247.418 60.672 250.191 63.4453 250.191 68.992C250.191 72.32 249.252 78.336 247.375 87.04C245.754 94.464 244.943 99.3707 244.943 101.76C244.943 105.173 246.18 106.88 248.655 106.88C250.362 106.88 252.367 105.856 254.671 103.808C257.06 101.675 260.218 98.2613 264.143 93.568C265.167 92.3733 266.319 91.776 267.599 91.776C268.708 91.776 269.562 92.288 270.159 93.312C270.842 94.336 271.183 95.744 271.183 97.536C271.183 100.949 270.372 103.595 268.751 105.472C265.082 109.995 261.114 113.707 256.847 116.608C252.666 119.509 247.887 120.96 242.511 120.96C238.159 120.96 234.874 119.723 232.655 117.248C230.436 114.688 229.327 111.019 229.327 106.24C229.327 103.851 229.924 99.584 231.119 93.44C232.228 88.064 232.783 84.352 232.783 82.304C232.783 80.9387 232.314 80.256 231.375 80.256C230.266 80.256 228.687 81.7067 226.639 84.608C224.676 87.424 222.628 91.1787 220.495 95.872C218.447 100.565 216.783 105.515 215.503 110.72C214.564 114.731 213.455 117.461 212.175 118.912C210.98 120.277 209.06 120.96 206.415 120.96Z" fill="#717171"/>
<path d="M278.491 52.224C274.907 52.224 272.219 51.4133 270.427 49.792C268.635 48.0853 267.739 45.7387 267.739 42.752C267.739 39.7653 268.891 37.2907 271.195 35.328C273.584 33.28 276.528 32.256 280.027 32.256C283.184 32.256 285.744 33.024 287.707 34.56C289.67 36.096 290.651 38.272 290.651 41.088C290.651 44.5013 289.542 47.232 287.323 49.28C285.104 51.2427 282.16 52.224 278.491 52.224ZM266.203 120.96C263.472 120.96 261.595 120.405 260.571 119.296C259.547 118.187 259.035 116.437 259.035 114.048C259.035 113.365 259.12 112.171 259.291 110.464C260.656 94.848 262.918 80.64 266.075 67.84C266.758 65.1947 267.867 63.36 269.403 62.336C271.024 61.2267 273.584 60.672 277.083 60.672C280.752 60.672 282.587 62.1653 282.587 65.152C282.587 65.5787 282.502 66.3893 282.331 67.584C278.491 85.8453 276.187 101.163 275.419 113.536C275.248 116.267 274.438 118.187 272.987 119.296C271.536 120.405 269.275 120.96 266.203 120.96Z" fill="#717171"/>
<path d="M298.034 120.96C294.279 120.96 291.421 119.936 289.458 117.888C287.581 115.84 286.642 113.152 286.642 109.824C286.642 105.984 287.709 102.912 289.842 100.608C292.061 98.304 295.133 97.152 299.058 97.152C302.813 97.152 305.629 98.0907 307.506 99.968C309.469 101.76 310.45 104.448 310.45 108.032C310.45 111.957 309.341 115.115 307.122 117.504C304.903 119.808 301.874 120.96 298.034 120.96Z" fill="#717171"/>
<path d="M360.289 121.344C348.94 121.344 339.852 119.211 333.025 114.944C326.198 110.592 322.785 103.979 322.785 95.104C322.785 90.4107 323.596 86.8267 325.217 84.352C326.838 81.8773 329.228 80.64 332.385 80.64C334.689 80.64 336.566 81.2373 338.017 82.432C339.468 83.6267 340.193 85.1627 340.193 87.04C340.193 88.7467 340.065 90.24 339.809 91.52C339.809 91.8613 339.724 92.4587 339.553 93.312C339.468 94.1653 339.425 95.0613 339.425 96C339.425 99.84 341.345 102.699 345.185 104.576C349.11 106.453 354.572 107.392 361.569 107.392C368.822 107.392 374.497 106.112 378.593 103.552C382.689 100.907 384.737 97.2373 384.737 92.544C384.737 89.6427 383.798 87.168 381.921 85.12C380.044 82.9867 377.697 81.2373 374.881 79.872C372.065 78.4213 368.097 76.672 362.977 74.624C356.406 72.064 351.03 69.632 346.849 67.328C342.753 65.024 339.212 61.9093 336.225 57.984C333.324 53.9733 331.873 49.024 331.873 43.136C331.873 36.992 333.494 31.5307 336.737 26.752C340.065 21.9733 344.801 18.2613 350.945 15.616C357.174 12.9707 364.47 11.648 372.833 11.648C379.062 11.648 384.78 12.5867 389.985 14.464C395.19 16.256 399.329 19.0293 402.401 22.784C405.558 26.5387 407.137 31.1467 407.137 36.608C407.137 41.984 406.326 46.0373 404.705 48.768C403.084 51.4987 400.694 52.864 397.537 52.864C395.318 52.864 393.441 52.1813 391.905 50.816C390.454 49.4507 389.729 47.8293 389.729 45.952C389.729 44.3307 389.857 42.8373 390.113 41.472C390.369 38.912 390.497 37.2907 390.497 36.608C390.497 33.024 388.748 30.2933 385.249 28.416C381.75 26.5387 377.398 25.6 372.193 25.6C364.854 25.6 359.222 26.9653 355.297 29.696C351.457 32.3413 349.537 36.096 349.537 40.96C349.537 44.2027 350.518 46.976 352.481 49.28C354.529 51.584 357.046 53.504 360.033 55.04C363.02 56.576 367.201 58.4107 372.577 60.544C379.062 63.1893 384.268 65.5787 388.193 67.712C392.118 69.8453 395.446 72.7467 398.177 76.416C400.993 80.0853 402.401 84.608 402.401 89.984C402.401 100.053 398.561 107.819 390.881 113.28C383.286 118.656 373.089 121.344 360.289 121.344Z" fill="#717171"/>
<path d="M478.607 81.024C479.716 81.024 480.57 81.5787 481.167 82.688C481.764 83.7973 482.063 85.2053 482.063 86.912C482.063 91.008 480.826 93.44 478.351 94.208C473.231 96 467.599 97.024 461.455 97.28C459.834 104.448 456.634 110.208 451.855 114.56C447.076 118.827 441.658 120.96 435.599 120.96C430.479 120.96 426.084 119.723 422.415 117.248C418.831 114.773 416.1 111.488 414.223 107.392C412.346 103.296 411.407 98.8587 411.407 94.08C411.407 87.5947 412.644 81.8347 415.119 76.8C417.594 71.68 421.007 67.712 425.359 64.896C429.711 61.9947 434.532 60.544 439.823 60.544C446.308 60.544 451.514 62.8053 455.439 67.328C459.45 71.7653 461.796 77.2693 462.479 83.84C466.49 83.584 471.268 82.7307 476.815 81.28C477.498 81.1093 478.095 81.024 478.607 81.024ZM436.623 107.392C439.354 107.392 441.7 106.283 443.663 104.064C445.711 101.845 447.076 98.6453 447.759 94.464C445.114 92.672 443.066 90.3253 441.615 87.424C440.25 84.5227 439.567 81.4507 439.567 78.208C439.567 76.8427 439.695 75.4773 439.951 74.112H439.311C435.898 74.112 433.039 75.776 430.735 79.104C428.516 82.3467 427.407 86.9547 427.407 92.928C427.407 97.6213 428.303 101.205 430.095 103.68C431.972 106.155 434.148 107.392 436.623 107.392Z" fill="#717171"/>
<path d="M522.149 84.48C524.538 84.48 525.733 86.272 525.733 89.856C525.733 96.5973 520.442 99.968 509.861 99.968C507.813 99.968 504.869 99.584 501.029 98.816C502.138 104.107 503.034 109.995 503.717 116.48C504.485 122.88 504.869 128.171 504.869 132.352C504.869 141.568 503.376 148.608 500.389 153.472C497.402 158.336 493.477 160.768 488.613 160.768C482.469 160.768 478.074 156.416 475.429 147.712C472.869 139.008 471.589 125.867 471.589 108.288C471.589 91.904 473.338 75.3067 476.837 58.496C480.421 41.6 485.285 27.648 491.429 16.64C497.658 5.54667 504.485 0 511.909 0C515.92 0 519.034 1.792 521.253 5.376C523.557 8.96 524.709 13.7813 524.709 19.84C524.709 39.8933 512.72 61.7387 488.741 85.376C487.888 93.7387 487.461 101.077 487.461 107.392C487.461 116.181 487.76 125.184 488.357 134.4C488.954 143.701 489.936 148.352 491.301 148.352C493.861 148.352 495.141 143.915 495.141 135.04C495.141 128.384 494.672 121.941 493.733 115.712C492.88 109.483 491.685 102.912 490.149 96C490.064 94.8907 490.405 93.4827 491.173 91.776C492.026 90.0693 493.05 88.576 494.245 87.296C495.44 86.016 496.506 85.376 497.445 85.376C499.152 85.376 501.2 85.4613 503.589 85.632C504.357 85.7173 505.253 85.76 506.277 85.76C509.69 85.76 513.488 85.4613 517.669 84.864C518.352 84.7787 519.077 84.6933 519.845 84.608C520.613 84.5227 521.381 84.48 522.149 84.48ZM509.221 12.672C507.685 12.672 505.765 15.2747 503.461 20.48C501.242 25.6853 499.024 32.5973 496.805 41.216C494.586 49.7493 492.666 58.7947 491.045 68.352C497.872 60.5867 503.12 52.5227 506.789 44.16C510.458 35.712 512.336 27.8187 512.421 20.48C512.421 15.2747 511.354 12.672 509.221 12.672Z" fill="#717171"/>
<path d="M574.415 91.776C575.524 91.776 576.378 92.288 576.975 93.312C577.658 94.336 577.999 95.744 577.999 97.536C577.999 100.949 577.188 103.595 575.567 105.472C571.898 109.995 567.887 113.707 563.535 116.608C559.183 119.509 554.191 120.96 548.559 120.96C531.151 120.96 522.447 108.715 522.447 84.224C522.447 80.4693 522.575 76.672 522.831 72.832H517.839C515.279 72.832 513.53 72.3627 512.591 71.424C511.738 70.4853 511.311 68.992 511.311 66.944C511.311 62.1653 513.231 59.776 517.071 59.776H524.367C525.818 50.3893 528.036 41.8133 531.023 34.048C534.01 26.2827 537.594 20.096 541.775 15.488C546.042 10.88 550.607 8.576 555.471 8.576C559.055 8.576 561.871 10.1547 563.919 13.312C565.967 16.4693 566.991 20.4373 566.991 25.216C566.991 38.4427 561.444 49.9627 550.351 59.776H564.687C566.052 59.776 567.034 60.0747 567.631 60.672C568.228 61.2693 568.527 62.3787 568.527 64C568.527 69.888 563.706 72.832 554.063 72.832H538.447C538.276 77.0987 538.191 80.4267 538.191 82.816C538.191 91.6907 539.215 97.92 541.263 101.504C543.396 105.088 546.724 106.88 551.247 106.88C554.916 106.88 558.159 105.771 560.975 103.552C563.791 101.333 567.119 98.0053 570.959 93.568C571.983 92.3733 573.135 91.776 574.415 91.776ZM552.015 20.864C550.735 20.864 549.284 22.4853 547.663 25.728C546.127 28.8853 544.634 33.3227 543.183 39.04C541.818 44.672 540.666 50.944 539.727 57.856C544.762 53.504 548.516 48.64 550.991 43.264C553.551 37.8027 554.831 32.8533 554.831 28.416C554.831 23.3813 553.892 20.864 552.015 20.864Z" fill="#717171"/>
<path d="M666.94 81.408C667.196 81.3227 667.623 81.28 668.22 81.28C669.5 81.28 670.481 81.7067 671.164 82.56C671.847 83.4133 672.188 84.5653 672.188 86.016C672.188 88.6613 671.676 90.752 670.652 92.288C669.628 93.7387 668.092 94.8053 666.044 95.488C662.119 96.768 657.937 97.408 653.5 97.408C649.745 97.408 646.204 96.896 642.876 95.872C640.401 99.8827 637.671 104.021 634.684 108.288C631.271 113.152 628.327 116.48 625.852 118.272C623.463 120.064 620.732 120.96 617.66 120.96C614.247 120.96 611.644 119.637 609.852 116.992C608.145 114.347 607.079 109.995 606.652 103.936L606.012 94.592C603.367 101.76 600.977 107.221 598.844 110.976C596.796 114.731 594.705 117.333 592.572 118.784C590.524 120.235 588.092 120.96 585.276 120.96C581.777 120.96 579.004 119.595 576.956 116.864C574.993 114.133 573.756 109.824 573.244 103.936C572.22 91.9893 571.708 81.536 571.708 72.576V68.096C571.793 65.28 572.561 63.3173 574.012 62.208C575.463 61.0987 577.639 60.544 580.54 60.544C582.759 60.544 584.38 61.056 585.404 62.08C586.513 63.0187 587.068 64.64 587.068 66.944C587.068 76.7573 587.665 89.5147 588.86 105.216C594.663 93.0133 599.996 80.2987 604.86 67.072C605.799 64.512 606.908 62.8053 608.188 61.952C609.553 61.0133 611.175 60.544 613.052 60.544C615.356 60.544 616.935 61.0133 617.788 61.952C618.727 62.8907 619.196 64.5547 619.196 66.944C619.196 76.7573 619.793 89.5147 620.988 105.216C626.108 97.6213 629.948 91.5627 632.508 87.04C631.228 84.5653 630.588 81.6213 630.588 78.208C630.588 75.3067 631.228 72.4907 632.508 69.76C633.788 67.0293 635.537 64.8107 637.756 63.104C639.975 61.3973 642.492 60.544 645.308 60.544C647.783 60.544 649.788 61.44 651.324 63.232C652.86 64.9387 653.628 67.456 653.628 70.784C653.628 74.624 652.604 79.0187 650.556 83.968C653.799 83.7973 658.108 83.1573 663.484 82.048L666.94 81.408Z" fill="#717171"/>
<path d="M676.821 120.96C671.53 120.96 667.306 119.04 664.149 115.2C660.992 111.36 659.413 106.325 659.413 100.096C659.413 93.2693 660.992 86.8267 664.149 80.768C667.306 74.624 671.488 69.7173 676.693 66.048C681.984 62.2933 687.573 60.416 693.461 60.416C695.338 60.416 696.576 60.8 697.173 61.568C697.856 62.2507 698.41 63.5307 698.837 65.408C700.629 65.0667 702.506 64.896 704.469 64.896C708.65 64.896 710.741 66.3893 710.741 69.376C710.741 71.168 710.101 75.4347 708.821 82.176C706.858 91.9893 705.877 98.816 705.877 102.656C705.877 103.936 706.176 104.96 706.773 105.728C707.456 106.496 708.309 106.88 709.333 106.88C710.954 106.88 712.917 105.856 715.221 103.808C717.525 101.675 720.64 98.2613 724.565 93.568C725.589 92.3733 726.741 91.776 728.021 91.776C729.13 91.776 729.984 92.288 730.581 93.312C731.264 94.336 731.605 95.744 731.605 97.536C731.605 100.949 730.794 103.595 729.173 105.472C725.674 109.824 721.962 113.493 718.037 116.48C714.112 119.467 710.314 120.96 706.645 120.96C703.829 120.96 701.226 120.021 698.837 118.144C696.533 116.181 694.784 113.536 693.589 110.208C689.152 117.376 683.562 120.96 676.821 120.96ZM681.429 108.032C683.306 108.032 685.098 106.923 686.805 104.704C688.512 102.485 689.749 99.5413 690.517 95.872L695.253 72.32C691.669 72.4053 688.341 73.7707 685.269 76.416C682.282 78.976 679.893 82.3893 678.101 86.656C676.309 90.9227 675.413 95.4453 675.413 100.224C675.413 102.869 675.925 104.832 676.949 106.112C678.058 107.392 679.552 108.032 681.429 108.032Z" fill="#717171"/>
<path d="M730.29 120.96C727.047 120.96 724.743 119.253 723.378 115.84C722.098 112.427 721.458 106.965 721.458 99.456C721.458 88.3627 723.037 77.824 726.194 67.84C726.962 65.3653 728.199 63.5733 729.906 62.464C731.698 61.2693 734.173 60.672 737.33 60.672C739.037 60.672 740.231 60.8853 740.914 61.312C741.597 61.7387 741.938 62.5493 741.938 63.744C741.938 65.1093 741.298 68.1813 740.018 72.96C739.165 76.3733 738.482 79.36 737.97 81.92C737.458 84.48 737.031 87.6373 736.69 91.392C739.506 84.0533 742.663 78.08 746.162 73.472C749.661 68.864 753.074 65.5787 756.402 63.616C759.815 61.6533 762.93 60.672 765.746 60.672C771.293 60.672 774.066 63.4453 774.066 68.992C774.066 70.1013 773.682 72.7893 772.914 77.056C772.231 80.4693 771.89 82.6027 771.89 83.456C771.89 86.4427 772.957 87.936 775.09 87.936C777.479 87.936 780.551 86.0587 784.306 82.304C785.415 81.1947 786.567 80.64 787.762 80.64C788.871 80.64 789.725 81.152 790.322 82.176C791.005 83.1147 791.346 84.3947 791.346 86.016C791.346 89.1733 790.493 91.648 788.786 93.44C786.397 95.9147 783.581 98.048 780.338 99.84C777.181 101.547 773.81 102.4 770.226 102.4C765.703 102.4 762.247 101.248 759.858 98.944C757.554 96.64 756.402 93.5253 756.402 89.6C756.402 88.32 756.53 87.04 756.786 85.76C756.957 84.0533 757.042 82.9013 757.042 82.304C757.042 80.9387 756.573 80.256 755.634 80.256C754.354 80.256 752.647 81.7067 750.514 84.608C748.466 87.424 746.418 91.1787 744.37 95.872C742.322 100.565 740.658 105.515 739.378 110.72C738.439 114.731 737.33 117.461 736.05 118.912C734.855 120.277 732.935 120.96 730.29 120.96Z" fill="#717171"/>
<path d="M825.276 95.616C826.385 95.616 827.239 96.128 827.836 97.152C828.519 98.176 828.86 99.584 828.86 101.376C828.86 104.448 828.135 107.093 826.684 109.312C824.295 112.981 821.137 115.84 817.212 117.888C813.372 119.936 808.764 120.96 803.388 120.96C795.196 120.96 788.839 118.528 784.316 113.664C779.793 108.715 777.532 102.059 777.532 93.696C777.532 87.808 778.769 82.3467 781.244 77.312C783.719 72.192 787.132 68.1387 791.484 65.152C795.921 62.1653 800.913 60.672 806.46 60.672C811.409 60.672 815.377 62.1653 818.364 65.152C821.351 68.0533 822.844 72.0213 822.844 77.056C822.844 82.944 820.711 88.0213 816.444 92.288C812.263 96.4693 805.095 99.7973 794.94 102.272C796.988 106.197 800.444 108.16 805.308 108.16C808.807 108.16 811.665 107.349 813.884 105.728C816.188 104.107 818.833 101.376 821.82 97.536C822.844 96.256 823.996 95.616 825.276 95.616ZM804.284 73.216C801.127 73.216 798.439 75.0507 796.22 78.72C794.087 82.3893 793.02 86.8267 793.02 92.032V92.288C798.055 91.0933 802.023 89.3013 804.924 86.912C807.825 84.5227 809.276 81.7493 809.276 78.592C809.276 76.9707 808.807 75.6907 807.868 74.752C807.015 73.728 805.82 73.216 804.284 73.216Z" fill="#717171"/>
</svg>
