<svg width="842" height="123" viewBox="0 0 842 123" fill="none" xmlns="http://www.w3.org/2000/svg">
<path d="M40.64 121.64C33.0453 121.64 26.176 119.933 20.032 116.52C13.9733 113.107 9.152 108.115 5.568 101.544C1.984 94.888 0.192 86.952 0.192 77.736C0.192 64.7653 2.53867 53.3307 7.232 43.432C12.0107 33.5333 18.4533 25.896 26.56 20.52C34.752 15.144 43.7973 12.456 53.696 12.456C61.2907 12.456 68.1173 14.1627 74.176 17.576C80.32 20.9893 85.184 26.024 88.768 32.68C92.352 39.2507 94.144 47.144 94.144 56.36C94.144 69.3307 91.7547 80.7653 86.976 90.664C82.2827 100.563 75.84 108.2 67.648 113.576C59.5413 118.952 50.5387 121.64 40.64 121.64ZM41.92 106.536C48.576 106.536 54.4213 104.488 59.456 100.392C64.576 96.296 68.5013 90.6213 71.232 83.368C73.9627 76.0293 75.328 67.752 75.328 58.536C75.328 48.3813 73.1947 40.7013 68.928 35.496C64.6613 30.2053 59.1573 27.56 52.416 27.56C45.8453 27.56 40.0427 29.608 35.008 33.704C29.9733 37.7147 26.048 43.3893 23.232 50.728C20.416 57.9813 19.008 66.2587 19.008 75.56C19.008 85.7147 21.1413 93.4373 25.408 98.728C29.6747 103.933 35.1787 106.536 41.92 106.536ZM172.848 92.456C173.957 92.456 174.811 92.968 175.408 93.992C176.091 95.016 176.432 96.424 176.432 98.216C176.432 101.629 175.621 104.275 174 106.152C170.501 110.419 166.661 114.088 162.48 117.16C158.299 120.147 154.16 121.64 150.064 121.64C143.579 121.64 138.629 117.843 135.216 110.248C131.632 114.771 128.475 117.8 125.744 119.336C123.099 120.872 119.984 121.64 116.4 121.64C111.195 121.64 106.885 119.72 103.472 115.88C100.144 111.955 98.48 106.877 98.48 100.648C98.48 93.8213 99.9307 87.5067 102.832 81.704C105.733 75.816 109.701 71.0373 114.736 67.368C119.856 63.6133 125.573 61.3947 131.888 60.712C133.509 44.1573 136.581 30.0347 141.104 18.344C145.712 6.56799 151.728 0.679993 159.152 0.679993C162.821 0.679993 165.851 2.34399 168.24 5.672C170.715 8.99999 171.952 14.0347 171.952 20.776C171.952 30.3333 169.605 41.512 164.912 54.312C160.219 67.112 153.947 80.2533 146.096 93.736C146.437 98.6853 147.163 102.227 148.272 104.36C149.467 106.493 150.96 107.56 152.752 107.56C155.056 107.56 157.403 106.536 159.792 104.488C162.181 102.44 165.381 99.0267 169.392 94.248C170.416 93.0533 171.568 92.456 172.848 92.456ZM157.744 13.224C156.123 13.224 154.501 16.1253 152.88 21.928C151.259 27.6453 149.851 35.1547 148.656 44.456C147.547 53.7573 146.736 63.4853 146.224 73.64C155.781 52.8187 160.56 36.0933 160.56 23.464C160.56 20.2213 160.261 17.704 159.664 15.912C159.152 14.12 158.512 13.224 157.744 13.224ZM120.88 108.712C122.501 108.712 124.123 108.072 125.744 106.792C127.365 105.427 129.413 102.952 131.888 99.368C131.035 94.76 130.608 89.5973 130.608 83.88C130.608 81.832 130.693 78.504 130.864 73.896C126.171 75.3467 122.245 78.504 119.088 83.368C116.016 88.1467 114.48 93.48 114.48 99.368C114.48 105.597 116.613 108.712 120.88 108.712ZM182.787 52.904C179.203 52.904 176.515 52.0933 174.723 50.472C172.931 48.7653 172.035 46.4187 172.035 43.432C172.035 40.4453 173.187 37.9707 175.491 36.008C177.88 33.96 180.824 32.936 184.323 32.936C187.48 32.936 190.04 33.704 192.003 35.24C193.966 36.776 194.947 38.952 194.947 41.768C194.947 45.1813 193.838 47.912 191.619 49.96C189.4 51.9227 186.456 52.904 182.787 52.904ZM181.763 121.64C176.216 121.64 172.163 119.677 169.603 115.752C167.128 111.827 165.891 106.621 165.891 100.136C165.891 96.296 166.36 91.3893 167.299 85.416C168.323 79.3573 169.603 73.7253 171.139 68.52C171.907 65.7893 172.931 63.912 174.211 62.888C175.491 61.864 177.539 61.352 180.355 61.352C184.707 61.352 186.883 62.8027 186.883 65.704C186.883 67.8373 186.072 72.7867 184.451 80.552C182.403 89.9387 181.379 96.296 181.379 99.624C181.379 102.184 181.72 104.147 182.403 105.512C183.086 106.877 184.238 107.56 185.859 107.56C187.395 107.56 189.315 106.493 191.619 104.36C193.923 102.227 196.995 98.856 200.835 94.248C201.859 93.0533 203.011 92.456 204.291 92.456C205.4 92.456 206.254 92.968 206.851 93.992C207.534 95.016 207.875 96.424 207.875 98.216C207.875 101.629 207.064 104.275 205.443 106.152C196.995 116.477 189.102 121.64 181.763 121.64ZM206.607 121.64C203.364 121.64 201.06 119.933 199.695 116.52C198.415 113.107 197.775 107.645 197.775 100.136C197.775 89.0427 199.354 78.504 202.511 68.52C203.279 66.0453 204.516 64.2533 206.223 63.144C208.015 61.9493 210.49 61.352 213.647 61.352C215.354 61.352 216.548 61.5653 217.231 61.992C217.914 62.4187 218.255 63.2293 218.255 64.424C218.255 65.7893 217.615 68.8613 216.335 73.64C215.482 77.0533 214.799 80.04 214.287 82.6C213.775 85.16 213.348 88.3173 213.007 92.072C215.823 84.7333 218.98 78.76 222.479 74.152C225.978 69.544 229.391 66.2587 232.719 64.296C236.132 62.3333 239.247 61.352 242.063 61.352C247.61 61.352 250.383 64.1253 250.383 69.672C250.383 73 249.444 79.016 247.567 87.72C245.946 95.144 245.135 100.051 245.135 102.44C245.135 105.853 246.372 107.56 248.847 107.56C250.554 107.56 252.559 106.536 254.863 104.488C257.252 102.355 260.41 98.9413 264.335 94.248C265.359 93.0533 266.511 92.456 267.791 92.456C268.9 92.456 269.754 92.968 270.351 93.992C271.034 95.016 271.375 96.424 271.375 98.216C271.375 101.629 270.564 104.275 268.943 106.152C265.274 110.675 261.306 114.387 257.039 117.288C252.858 120.189 248.079 121.64 242.703 121.64C238.351 121.64 235.066 120.403 232.847 117.928C230.628 115.368 229.519 111.699 229.519 106.92C229.519 104.531 230.116 100.264 231.311 94.12C232.42 88.744 232.975 85.032 232.975 82.984C232.975 81.6187 232.506 80.936 231.567 80.936C230.458 80.936 228.879 82.3867 226.831 85.288C224.868 88.104 222.82 91.8587 220.687 96.552C218.639 101.245 216.975 106.195 215.695 111.4C214.756 115.411 213.647 118.141 212.367 119.592C211.172 120.957 209.252 121.64 206.607 121.64ZM278.683 52.904C275.099 52.904 272.411 52.0933 270.619 50.472C268.827 48.7653 267.931 46.4187 267.931 43.432C267.931 40.4453 269.083 37.9707 271.387 36.008C273.776 33.96 276.72 32.936 280.219 32.936C283.376 32.936 285.936 33.704 287.899 35.24C289.862 36.776 290.843 38.952 290.843 41.768C290.843 45.1813 289.734 47.912 287.515 49.96C285.296 51.9227 282.352 52.904 278.683 52.904ZM266.395 121.64C263.664 121.64 261.787 121.085 260.763 119.976C259.739 118.867 259.227 117.117 259.227 114.728C259.227 114.045 259.312 112.851 259.483 111.144C260.848 95.528 263.11 81.32 266.267 68.52C266.95 65.8747 268.059 64.04 269.595 63.016C271.216 61.9067 273.776 61.352 277.275 61.352C280.944 61.352 282.779 62.8453 282.779 65.832C282.779 66.2587 282.694 67.0693 282.523 68.264C278.683 86.5253 276.379 101.843 275.611 114.216C275.44 116.947 274.63 118.867 273.179 119.976C271.728 121.085 269.467 121.64 266.395 121.64ZM298.226 121.64C294.471 121.64 291.613 120.616 289.65 118.568C287.773 116.52 286.834 113.832 286.834 110.504C286.834 106.664 287.901 103.592 290.034 101.288C292.253 98.984 295.325 97.832 299.25 97.832C303.005 97.832 305.821 98.7707 307.698 100.648C309.661 102.44 310.642 105.128 310.642 108.712C310.642 112.637 309.533 115.795 307.314 118.184C305.095 120.488 302.066 121.64 298.226 121.64ZM347.741 112.168C360.712 112.168 367.197 107.731 367.197 98.856C367.197 96.1253 366.6 93.8213 365.405 91.944C364.296 89.9813 362.76 88.3173 360.797 86.952C358.834 85.5013 356.573 84.264 354.013 83.24C351.538 82.216 348.893 81.192 346.077 80.168C342.834 79.0587 339.762 77.8213 336.861 76.456C333.96 75.0053 331.442 73.3413 329.309 71.464C327.176 69.5013 325.469 67.1973 324.189 64.552C322.994 61.9067 322.397 58.7067 322.397 54.952C322.397 47.1867 325.042 41.128 330.333 36.776C335.624 32.424 342.92 30.248 352.221 30.248C357.597 30.248 362.461 30.8453 366.813 32.04C371.25 33.1493 374.493 34.3867 376.541 35.752L372.573 45.864C370.781 44.7547 368.093 43.688 364.509 42.664C361.01 41.5547 356.914 41 352.221 41C349.832 41 347.613 41.256 345.565 41.768C343.517 42.28 341.725 43.048 340.189 44.072C338.653 45.096 337.416 46.4187 336.477 48.04C335.624 49.576 335.197 51.4107 335.197 53.544C335.197 55.9333 335.666 57.9387 336.605 59.56C337.544 61.1813 338.866 62.632 340.573 63.912C342.28 65.1067 344.242 66.216 346.461 67.24C348.765 68.264 351.282 69.288 354.013 70.312C357.853 71.848 361.352 73.384 364.509 74.92C367.752 76.456 370.525 78.2907 372.829 80.424C375.218 82.5573 377.053 85.1173 378.333 88.104C379.613 91.0053 380.253 94.5467 380.253 98.728C380.253 106.493 377.394 112.467 371.677 116.648C366.045 120.829 358.066 122.92 347.741 122.92C344.242 122.92 341 122.664 338.013 122.152C335.112 121.725 332.509 121.213 330.205 120.616C327.901 119.933 325.896 119.251 324.189 118.568C322.568 117.8 321.288 117.16 320.349 116.648L324.061 106.408C326.024 107.517 329.01 108.755 333.021 110.12C337.032 111.485 341.938 112.168 347.741 112.168ZM453.242 87.72C453.242 93.0107 452.474 97.7893 450.938 102.056C449.402 106.323 447.226 109.992 444.41 113.064C441.679 116.136 438.394 118.525 434.554 120.232C430.714 121.853 426.533 122.664 422.01 122.664C417.487 122.664 413.306 121.853 409.466 120.232C405.626 118.525 402.298 116.136 399.482 113.064C396.751 109.992 394.618 106.323 393.082 102.056C391.546 97.7893 390.778 93.0107 390.778 87.72C390.778 82.5147 391.546 77.7787 393.082 73.512C394.618 69.16 396.751 65.448 399.482 62.376C402.298 59.304 405.626 56.9573 409.466 55.336C413.306 53.6293 417.487 52.776 422.01 52.776C426.533 52.776 430.714 53.6293 434.554 55.336C438.394 56.9573 441.679 59.304 444.41 62.376C447.226 65.448 449.402 69.16 450.938 73.512C452.474 77.7787 453.242 82.5147 453.242 87.72ZM440.826 87.72C440.826 80.2107 439.119 74.28 435.706 69.928C432.378 65.4907 427.813 63.272 422.01 63.272C416.207 63.272 411.599 65.4907 408.186 69.928C404.858 74.28 403.194 80.2107 403.194 87.72C403.194 95.2293 404.858 101.203 408.186 105.64C411.599 109.992 416.207 112.168 422.01 112.168C427.813 112.168 432.378 109.992 435.706 105.64C439.119 101.203 440.826 95.2293 440.826 87.72ZM495.974 21.672C499.473 21.672 502.459 21.928 504.934 22.44C507.494 22.952 509.286 23.4213 510.31 23.848L508.134 34.088C507.11 33.576 505.659 33.1067 503.782 32.68C501.905 32.168 499.601 31.912 496.87 31.912C491.323 31.912 487.441 33.448 485.222 36.52C483.003 39.5067 481.894 43.56 481.894 48.68V54.44H507.494V64.424H481.894V121H469.99V48.424C469.99 39.8907 472.081 33.32 476.262 28.712C480.443 24.0187 487.014 21.672 495.974 21.672ZM530.501 54.44H555.717V64.424H530.501V95.144C530.501 98.472 530.757 101.245 531.269 103.464C531.781 105.597 532.549 107.304 533.573 108.584C534.597 109.779 535.877 110.632 537.413 111.144C538.949 111.656 540.741 111.912 542.789 111.912C546.373 111.912 549.232 111.528 551.365 110.76C553.584 109.907 555.12 109.309 555.973 108.968L558.277 118.824C557.082 119.421 554.992 120.147 552.005 121C549.018 121.939 545.605 122.408 541.765 122.408C537.242 122.408 533.488 121.853 530.501 120.744C527.6 119.549 525.253 117.8 523.461 115.496C521.669 113.192 520.389 110.376 519.621 107.048C518.938 103.635 518.597 99.7093 518.597 95.272V35.88L530.501 33.832V54.44ZM625.265 121C622.876 114.856 620.316 107.859 617.585 100.008C614.94 92.072 612.508 83.8373 610.289 75.304C608.07 83.8373 605.638 92.072 602.993 100.008C600.348 107.859 597.83 114.856 595.441 121H585.073C581.148 112.211 577.308 102.184 573.553 90.92C569.798 79.656 566.257 67.496 562.929 54.44H575.729C576.582 58.4507 577.606 62.8027 578.801 67.496C579.996 72.1893 581.233 76.8827 582.513 81.576C583.878 86.2693 585.286 90.792 586.737 95.144C588.188 99.496 589.553 103.293 590.833 106.536C592.284 102.525 593.692 98.3013 595.057 93.864C596.508 89.3413 597.873 84.8187 599.153 80.296C600.433 75.688 601.628 71.208 602.737 66.856C603.932 62.4187 604.956 58.28 605.809 54.44H615.665C616.433 58.28 617.372 62.4187 618.481 66.856C619.59 71.208 620.785 75.688 622.065 80.296C623.345 84.8187 624.668 89.3413 626.033 93.864C627.484 98.3013 628.934 102.525 630.385 106.536C631.665 103.293 632.988 99.496 634.353 95.144C635.804 90.792 637.212 86.2693 638.577 81.576C639.942 76.8827 641.222 72.1893 642.417 67.496C643.612 62.8027 644.636 58.4507 645.489 54.44H657.777C654.449 67.496 650.908 79.656 647.153 90.92C643.398 102.184 639.558 112.211 635.633 121H625.265ZM692.893 112.424C695.709 112.424 698.184 112.381 700.317 112.296C702.536 112.125 704.37 111.869 705.821 111.528V91.688C704.968 91.2613 703.56 90.92 701.597 90.664C699.72 90.3227 697.416 90.152 694.685 90.152C692.893 90.152 690.973 90.28 688.925 90.536C686.962 90.792 685.128 91.3467 683.421 92.2C681.8 92.968 680.434 94.0773 679.325 95.528C678.216 96.8933 677.661 98.728 677.661 101.032C677.661 105.299 679.026 108.285 681.757 109.992C684.488 111.613 688.2 112.424 692.893 112.424ZM691.869 52.776C696.648 52.776 700.658 53.416 703.901 54.696C707.229 55.8907 709.874 57.64 711.837 59.944C713.885 62.1627 715.336 64.8507 716.189 68.008C717.042 71.08 717.469 74.4933 717.469 78.248V119.848C716.445 120.019 714.994 120.275 713.117 120.616C711.325 120.872 709.277 121.128 706.973 121.384C704.669 121.64 702.152 121.853 699.421 122.024C696.776 122.28 694.13 122.408 691.485 122.408C687.73 122.408 684.274 122.024 681.117 121.256C677.96 120.488 675.229 119.293 672.925 117.672C670.621 115.965 668.829 113.747 667.549 111.016C666.269 108.285 665.629 105 665.629 101.16C665.629 97.4907 666.354 94.3333 667.805 91.688C669.341 89.0427 671.389 86.9093 673.949 85.288C676.509 83.6667 679.496 82.472 682.909 81.704C686.322 80.936 689.906 80.552 693.661 80.552C694.856 80.552 696.093 80.6373 697.373 80.808C698.653 80.8933 699.848 81.064 700.957 81.32C702.152 81.4907 703.176 81.6613 704.029 81.832C704.882 82.0027 705.48 82.1307 705.821 82.216V78.888C705.821 76.9253 705.608 75.0053 705.181 73.128C704.754 71.1653 703.986 69.4587 702.877 68.008C701.768 66.472 700.232 65.2773 698.269 64.424C696.392 63.4853 693.917 63.016 690.845 63.016C686.92 63.016 683.464 63.3147 680.477 63.912C677.576 64.424 675.4 64.9787 673.949 65.576L672.541 55.72C674.077 55.0373 676.637 54.3973 680.221 53.8C683.805 53.1173 687.688 52.776 691.869 52.776ZM761.816 53.032C762.84 53.032 763.992 53.1173 765.272 53.288C766.637 53.3733 767.96 53.544 769.24 53.8C770.52 53.9707 771.672 54.184 772.696 54.44C773.805 54.6107 774.616 54.7813 775.128 54.952L773.08 65.32C772.141 64.9787 770.563 64.5947 768.344 64.168C766.211 63.656 763.437 63.4 760.024 63.4C757.805 63.4 755.587 63.656 753.368 64.168C751.235 64.5947 749.827 64.8933 749.144 65.064V121H737.24V57.256C740.056 56.232 743.555 55.2933 747.736 54.44C751.917 53.5013 756.611 53.032 761.816 53.032ZM782.903 87.848C782.903 81.96 783.756 76.84 785.463 72.488C787.17 68.0507 789.431 64.3813 792.247 61.48C795.063 58.5787 798.306 56.4027 801.975 54.952C805.644 53.5013 809.399 52.776 813.239 52.776C822.199 52.776 829.068 55.592 833.847 61.224C838.626 66.7707 841.015 75.2613 841.015 86.696C841.015 87.208 841.015 87.8907 841.015 88.744C841.015 89.512 840.972 90.2373 840.887 90.92H795.319C795.831 97.832 797.836 103.08 801.335 106.664C804.834 110.248 810.295 112.04 817.719 112.04C821.9 112.04 825.399 111.699 828.215 111.016C831.116 110.248 833.292 109.523 834.743 108.84L836.407 118.824C834.956 119.592 832.396 120.403 828.727 121.256C825.143 122.109 821.047 122.536 816.439 122.536C810.636 122.536 805.602 121.683 801.335 119.976C797.154 118.184 793.698 115.752 790.967 112.68C788.236 109.608 786.188 105.981 784.823 101.8C783.543 97.5333 782.903 92.8827 782.903 87.848ZM828.599 81.32C828.684 75.944 827.319 71.5493 824.503 68.136C821.772 64.6373 817.975 62.888 813.111 62.888C810.38 62.888 807.948 63.4427 805.815 64.552C803.767 65.576 802.018 66.9413 800.567 68.648C799.116 70.3547 797.964 72.3173 797.111 74.536C796.343 76.7547 795.831 79.016 795.575 81.32H828.599Z" fill="#717171"/>
</svg>
